#!OML:ASF F:\VICON\USERDATA\INSTALL\rory3\rory3.ASF
:FULLY-SPECIFIED
:DEGREES
290
root 0.45774323157593677 17.80679876466149 62.25207770838005 -2.1311035634493987 -1.6778238508260057 -1.621149856766343
lfemur -8.578676311603033 -2.528766149816882 -19.5770347427954
ltibia 24.824402332746477
lfoot 6.375842159819998 -5.5760753652559
ltoes -6.311492278603329
rfemur -19.483699354959008 4.022109741501418 23.5933344232971
rtibia 37.44270502476119
rfoot -6.198290380743121 -10.910566335584114
rtoes 3.404649358626027
lowerback 11.689742723040455 0.05100369245236133 0.7529513730618096
upperback 0.24636105700974562 0.33610961703526704 1.7607001942047245
thorax -6.027427308013024 0.17934452349377475 1.1449845118274613
lowerneck -16.32982436153019 -3.02287115457185 -3.4597444641358672
upperneck 22.044109008432347 -3.6739174139448396 1.7127055442987436
head 9.655832433593634 -1.7937004072027676 0.7675416649815441
lclavicle -2.026465067765539e-15 -7.117587710403677e-16
lhumerus -33.42051156696672 2.2980097738041976 79.57229969320613
lradius 27.806240458977644
lwrist 8.26836743381536
lhand -29.852434254364557 19.11051553659004
lfingers 7.12502
lthumb -3.115814114705622 49.433362719243554
rclavicle -2.0272858522694252e-15 -7.1226251993838e-16
rhumerus -28.756139891462837 -20.08131855957427 -75.67954773249234
rradius 21.523530518257225
rwrist 5.186169077743668
rhand -16.798511295561795 21.3397240277285
rfingers 7.12502
rthumb 8.532073340582897 -6.804718568601119
291
root 0.45046196502774416 17.812325419444235 62.38134497457624 -2.141306539314594 -1.3764589906456441 -1.6550343285525364
lfemur -7.3954838971045955 -2.6415014086476023 -19.58560234406777
ltibia 24.383179218707287
lfoot 7.341165151190742 -6.676795207236443
ltoes -5.620568511449845
rfemur -19.660251161699648 4.2006772067789635 23.401233197206025
rtibia 36.833326604235864
rfoot -6.560381185859518 -10.907856554434982
rtoes 3.131634463471237
lowerback 11.590161647298293 -0.11049152508692442 0.8126106219881533
upperback 0.2494594155341531 0.13984899517920485 1.7709981615293215
thorax -5.937794203942579 0.06632165630551828 1.274052494099854
lowerneck -16.33330526395545 -3.0031200538946115 -3.4744469189876814
upperneck 22.069343251026034 -3.6368389076595573 1.6580883602752343
head 9.668405393593895 -1.7854028548418857 0.7569148140479184
lclavicle -2.0263952362292256e-15 -7.1171464097294035e-16
lhumerus -33.32332100007512 2.2858940886332064 79.5316079522367
lradius 28.0232358748891
lwrist 8.55170193814827
lhand -30.0224193802802 18.94813936049433
lfingers 7.12502
lthumb -3.2827736314379 49.23973798005026
rclavicle -2.0278574132023282e-15 -7.126274568706391e-16
rhumerus -28.761467936202813 -20.070582631035162 -75.6950856964943
rradius 21.41496552037767
rwrist 5.3406625548952
rhand -16.807788058753843 21.32404163891389
rfingers 7.12502
rthumb 8.526614267690778 -6.7082261002714745
292
root 0.4425462512699146 17.820609601391926 62.52328897410533 -2.048652727174729 -1.1081039123656344 -1.591446287399994
lfemur -6.1904908811366015 -2.7321229750132074 -19.57603577841558
ltibia 24.10264230106329
lfoot 7.834448019407976 -7.499802799524311
ltoes -4.649204581954715
rfemur -19.680061374954732 4.517992182784784 23.20353327268507
rtibia 36.07409598988902
rfoot -6.834222491700389 -10.93661548053855
rtoes 2.9875287464309928
lowerback 11.406492676451958 -0.2337143297103131 0.763637954293358
upperback 0.20404561411918912 -0.06396030127895497 1.7623120669445713
thorax -5.825744657673022 -0.038389949814077784 1.412241482246848
lowerneck -16.337906261737587 -2.9852037939494798 -3.485710000484986
upperneck 22.099305603554445 -3.6032956682120303 1.5907119721763034
head 9.67503910520084 -1.7781531640729877 0.7443457885890528
lclavicle -2.0272721096167295e-15 -7.122744946208601e-16
lhumerus -33.183296136466176 2.4245955381230515 79.50484071520843
lradius 28.34773268040431
lwrist 8.895822396202101
lhand -30.166143301787212 18.879960600537288
lfingers 7.12502
lthumb -3.414155562933491 49.10939183584495
rclavicle -2.0280374902308587e-15 -7.127424166925754e-16
rhumerus -28.888429299100252 -20.167029512189824 -75.70845668367424
rradius 21.42370008385777
rwrist 5.5695954721846785
rhand -16.788446975634333 21.297977342920152
rfingers 7.12502
rthumb 8.552838166355695 -6.697694433703624
293
root 0.4304168712737865 17.82345738374709 62.63156660727811 -2.058921396961999 -0.9587853298567435 -1.9306185314541326
lfemur -5.3840242941465615 -2.7959461091711235 -19.109476099373875
ltibia 24.269918432348454
lfoot 8.196400356901119 -8.259959417945794
ltoes -4.189587494147639
rfemur -19.60312896337019 4.915549422104555 23.395055581696475
rtibia 35.58441538278382
rfoot -6.955194730637195 -10.887021993035647
rtoes 2.7333307358926717
lowerback 11.359353400280801 -0.29183127929093755 1.0448032807641228
upperback 0.14779352126251535 -0.08894955355004924 1.834050304880522
thorax -5.800813553126228 -0.057040678567723935 1.4701388358576213
lowerneck -16.327762020365483 -2.977760597615381 -3.4938718155435975
upperneck 22.142886201480938 -3.580162498087558 1.5299286336340807
head 9.690915356383773 -1.7722741933954318 0.7260905872825751
lclavicle -2.0270982542479427e-15 -7.121642281965641e-16
lhumerus -33.01435272510876 2.3679456504759897 79.6403507520974
lradius 28.63818507251361
lwrist 9.045230238801723
lhand -30.274460554440502 18.782880405941583
lfingers 7.12502
lthumb -3.49965477944553 48.994121354341964
rclavicle -2.027942166207756e-15 -7.126815557056745e-16
rhumerus -29.056014492473793 -20.321111478250952 -75.7434782733909
rradius 21.32096831377359
rwrist 5.7174440016954815
rhand -16.828283568639648 21.249320690843803
rfingers 7.12502
rthumb 8.507894300770081 -6.725861402484814
